<svg xmlns="http://www.w3.org/2000/svg" viewBox="0 0 86 26" width="86" height="26">
	<style>
		tspan { white-space:pre }
		.shp0 { fill: #ffffff } 
	</style>
	<g id="Layer">
		<path id="Layer" class="shp0" d="M62.85 18.75C63.56 17.01 64.69 15.83 66.19 15.24C66.23 15.22 66.27 15.24 66.3 15.27C66.32 15.31 66.31 15.35 66.28 15.38C65.23 16.23 64.64 17.48 64.65 18.81C64.65 21.24 66.64 23.21 69.06 23.2C71.49 23.19 73.46 21.21 73.45 18.78C73.44 17.71 73.05 16.67 72.33 15.87C72.3 15.84 72.3 15.79 72.33 15.76C72.36 15.73 72.4 15.72 72.44 15.75C73.38 16.34 74.13 17.21 74.69 18.34C75.03 19.02 75.29 19.79 75.47 20.62C75.47 20.63 75.47 20.65 75.46 20.66C74.65 23.49 72.02 25.47 69.07 25.48C65.79 25.49 63.01 23.15 62.46 19.92C62.46 19.91 62.46 19.9 62.46 19.88C62.57 19.49 62.7 19.11 62.85 18.75Z" />
	</g>
	<g id="Layer">
		<path id="Layer" class="shp0" d="M13.51 17.7C14.31 16.14 15.58 15.13 17.28 14.7C17.32 14.69 17.36 14.71 17.37 14.75C17.39 14.79 17.37 14.83 17.34 14.85C15.95 15.63 15.1 17.1 15.1 18.69C15.11 21.1 17.08 23.05 19.5 23.04C21.91 23.03 23.87 21.06 23.86 18.65C23.85 17.19 23.12 15.83 21.9 15.02C21.86 15 21.85 14.95 21.87 14.91C21.89 14.88 21.93 14.86 21.97 14.87C24.7 15.84 25.69 18.31 26.04 19.7C26.04 19.71 26.04 19.72 26.04 19.73C25.52 22.95 22.77 25.3 19.51 25.31C16.11 25.33 13.26 22.79 12.88 19.42C12.88 19.41 12.88 19.4 12.88 19.39C13.03 18.78 13.24 18.21 13.51 17.7Z" />
	</g>
	<path id="Layer" fill-rule="evenodd" class="shp0" d="M0.73 13.49C0.74 13.46 1.43 10.77 1.5 9.85C1.53 9.32 1.5 7.33 1.5 7.31C1.5 7.28 1.51 7.26 1.52 7.24C1.54 7.23 1.56 7.22 1.58 7.22C1.59 7.22 2.48 7.24 3.36 7.24C4.05 7.24 4.54 7.22 4.84 7.19C6.97 6.96 13.37 5.08 13.43 5.06C13.47 5.05 13.5 5.06 13.52 5.09C13.54 5.12 13.54 5.15 13.53 5.18L13.26 5.57C14.95 5.2 25.77 2.83 26.7 2.82C27.04 2.82 27.47 1.76 27.66 1.09C27.67 1.06 27.69 1.04 27.72 1.03C29.41 0.57 32.36 0.3 35.82 0.29C37.22 0.28 38.63 0.32 39.9 0.4C40.01 0.4 40.13 0.41 40.27 0.42C41.59 0.49 44.04 0.62 45.31 1.31C45.39 1.36 45.41 1.42 45.41 1.46C45.41 1.6 45.21 1.7 44.85 1.89C44.52 2.05 44.07 2.28 44.05 2.49C44.05 2.51 44.04 2.57 44.15 2.67C44.48 2.94 44.95 3.33 45.49 3.77C47.34 5.3 50.13 7.59 51.06 8.5C51.21 8.64 51.38 8.72 51.57 8.72C52.15 8.72 52.71 8.01 52.71 8C52.73 7.98 52.75 7.97 52.78 7.97C52.95 7.97 70.31 7.54 74.37 7.52C75.06 7.52 75.19 7.53 75.23 7.54C75.52 7.59 76.01 7.83 76.52 8.08C77.09 8.35 77.67 8.64 77.97 8.67C83.78 9.21 85.69 10.96 85.77 11.04C85.79 11.06 85.8 11.1 85.78 11.13L83.51 15.48L84.29 16.1C84.32 16.12 84.33 16.15 84.32 16.18L83.41 19.45L82.88 22.33C82.87 22.38 82.83 22.41 82.79 22.4L76.66 22.08C76.61 22.08 76.58 22.04 76.58 22C76.58 21.98 76.51 19.94 75.53 17.92C74.22 15.24 71.98 13.88 68.88 13.89C68.71 13.89 68.54 13.9 68.36 13.91C65.44 14.06 63.37 15.55 62.22 18.35C61.36 20.44 61.36 22.52 61.36 22.54C61.36 22.56 61.36 22.58 61.34 22.6C61.32 22.61 61.3 22.62 61.28 22.62C61.28 22.62 61.28 22.62 61.28 22.62L27.29 21.85C27.25 21.85 27.22 21.82 27.21 21.78L27.09 20.67C27.08 20.6 26.62 13.65 19.83 13.37C16.45 13.23 14.05 14.48 12.74 17.09C11.8 18.93 11.79 20.79 11.79 20.81C11.79 20.83 11.78 20.86 11.76 20.87C11.74 20.89 11.72 20.89 11.69 20.89L5.65 20.12C5.63 20.12 5.62 20.11 5.6 20.1L1.77 15.83C1.76 15.82 1.76 15.81 1.75 15.81L0.74 13.55C0.73 13.53 0.73 13.51 0.73 13.49ZM26.85 5.02C26.84 5.02 26.84 5.02 26.83 5.02C26.7 5.02 26.32 5.08 25.76 5.17C25.99 6.06 26.13 6.97 26.27 7.86C26.31 8.12 26.35 8.38 26.4 8.64L27.72 8.7C27.5 6.95 27.11 5.07 26.85 5.02ZM39.81 2.98C39.41 2.91 38.71 2.87 37.8 2.88C34.79 2.89 30.29 3.31 29.64 3.73C29.19 4.02 29.91 6.9 30.48 8.68L47.14 9.06C46.36 8.17 42.05 3.37 39.81 2.98ZM24.19 13.43L25.42 14.19C27.64 15.58 28.48 18.55 28.49 18.58L28.57 18.87C28.59 18.94 28.65 18.99 28.72 19L29.03 19.01L51.42 19.24C51.42 19.24 51.42 19.24 51.42 19.24C51.51 19.24 51.58 19.17 51.58 19.08C51.59 18.99 51.52 18.91 51.42 18.91L29.48 17.87C29.22 17.13 28.57 15.56 27.34 14.28L56.62 13.88C56.71 13.88 56.79 13.8 56.79 13.71C56.79 13.62 56.71 13.55 56.62 13.55L24.28 13.12L24.28 13.12C24.21 13.12 24.14 13.17 24.12 13.24C24.1 13.31 24.13 13.39 24.19 13.43ZM23.92 7.86C23.96 8.09 23.99 8.32 24.03 8.54L25.38 8.6C25.36 8.45 25.34 8.29 25.31 8.13C25.17 7.21 25.02 6.26 24.77 5.35C24.38 5.42 23.95 5.5 23.51 5.59C23.69 6.34 23.8 7.11 23.92 7.86ZM21.52 7.92C21.54 8.09 21.57 8.27 21.6 8.44L23.02 8.5L22.96 8.12C22.84 7.35 22.72 6.56 22.54 5.79C22.08 5.88 21.63 5.98 21.2 6.07C21.32 6.69 21.42 7.31 21.52 7.92ZM18.07 7.93C18.13 8.16 18.22 8.31 18.3 8.31C18.65 8.32 19.52 8.36 20.59 8.4L20.56 8.22C20.46 7.59 20.36 6.93 20.23 6.29C18.59 6.67 18.17 6.83 18.06 6.89C17.99 6.94 17.94 7.46 18.07 7.93Z" />
</svg>